<?xml version="1.0" encoding="UTF-8" standalone="no"?>
<!-- Created with Inkscape (http://www.inkscape.org/) -->

<svg
   xmlns:dc="http://purl.org/dc/elements/1.1/"
   xmlns:cc="http://creativecommons.org/ns#"
   xmlns:rdf="http://www.w3.org/1999/02/22-rdf-syntax-ns#"
   xmlns:svg="http://www.w3.org/2000/svg"
   xmlns="http://www.w3.org/2000/svg"
   xmlns:sodipodi="http://sodipodi.sourceforge.net/DTD/sodipodi-0.dtd"
   xmlns:inkscape="http://www.inkscape.org/namespaces/inkscape"
   width="400.41599"
   height="258.73801"
   viewBox="0 0 375.39 242.56689"
   id="svg2"
   version="1.1"
   inkscape:version="0.92.2 (5c3e80d, 2017-08-06)"
   sodipodi:docname="LJC-Logo_Weiss.svg">
  <defs
     id="defs4" />
  <sodipodi:namedview
     id="base"
     pagecolor="#ffffff"
     bordercolor="#666666"
     borderopacity="1.0"
     inkscape:pageopacity="0.0"
     inkscape:pageshadow="2"
     inkscape:zoom="2.8284271"
     inkscape:cx="154.90207"
     inkscape:cy="149.28605"
     inkscape:document-units="px"
     inkscape:current-layer="g4948"
     showgrid="false"
     inkscape:window-width="2560"
     inkscape:window-height="1361"
     inkscape:window-x="-9"
     inkscape:window-y="-9"
     inkscape:window-maximized="1"
     showguides="true"
     inkscape:guide-bbox="true"
     units="px" />
  <metadata
     id="metadata7">
    <rdf:RDF>
      <cc:Work
         rdf:about="">
        <dc:format>image/svg+xml</dc:format>
        <dc:type
           rdf:resource="http://purl.org/dc/dcmitype/StillImage" />
        <dc:title />
      </cc:Work>
    </rdf:RDF>
  </metadata>
  <g
     inkscape:label="Ebene 1"
     inkscape:groupmode="layer"
     id="layer1"
     transform="translate(0,-809.79529)">
    <g
       id="g5114">
      <g
         id="g4948">
        <g
           id="g7440">
          <rect
             y="828.54529"
             x="18.75"
             height="205.06688"
             width="337.89001"
             id="rect1790"
             style="opacity:1;fill:none;fill-opacity:1;fill-rule:nonzero;stroke:none;stroke-width:3.95761466;stroke-linecap:butt;stroke-miterlimit:4;stroke-dasharray:none;stroke-opacity:1" />
          <g
             id="g4894">
            <g
               id="g4782">
              <g
                 transform="translate(-60.785158,535.87574)"
                 id="g2940"
                 style="font-style:normal;font-weight:normal;line-height:0.01%;font-family:sans-serif;letter-spacing:0px;word-spacing:0px;fill:#ffffff;fill-opacity:1;stroke:none;stroke-width:1px;stroke-linecap:butt;stroke-linejoin:miter;stroke-opacity:1">
                <path
                   id="path2925"
                   style="font-style:normal;font-variant:normal;font-weight:300;font-stretch:normal;font-size:80px;line-height:1.25;font-family:Homizio;-inkscape-font-specification:'Homizio Light';fill:#ffffff;fill-opacity:1"
                   d="m 146.41016,349.62268 v -56.01563 h 3.86718 v 52.5 h 22.46094 v 3.51563 z"
                   inkscape:connector-curvature="0" />
                <path
                   id="path2927"
                   style="font-style:normal;font-variant:normal;font-weight:300;font-stretch:normal;font-size:80px;line-height:1.25;font-family:Homizio;-inkscape-font-specification:'Homizio Light';fill:#ffffff;fill-opacity:1"
                   d="m 218.87109,349.62268 -6.40625,-17.42188 h -24.29687 l -6.40625,17.42188 h -4.25781 l 21.13281,-56.01563 h 3.67187 l 20.89844,56.01563 z m -17.1875,-46.875 q -0.42968,-1.17188 -0.70312,-2.30469 -0.27344,-0.97656 -0.58594,-1.95313 h -0.15625 q -0.66406,2.57813 -1.28906,4.17969 l -9.41406,25.97656 h 21.60156 z"
                   inkscape:connector-curvature="0" />
              </g>
              <path
                 sodipodi:nodetypes="cccccscccccccscccc"
                 d="m 206.13281,885.49878 -33.35938,-45.27344 c -0.67708,-0.91146 -1.27604,-1.82292 -1.79687,-2.73438 l -0.50781,-0.78125 h -0.15625 c 0.0521,0.67709 0.0781,1.4974 0.0781,2.46094 v 46.32813 h -3.86719 v -56.01563 h 2.96875 l 33.125,44.88281 c 0.72917,0.98959 1.52344,2.1875 2.38282,3.59375 h 0.19531 c -0.13021,-1.82291 -0.19531,-3.38541 -0.19531,-4.6875 v -43.78906 h 3.86718 v 56.01563 z"
                 style="font-style:normal;font-variant:normal;font-weight:300;font-stretch:normal;font-size:80px;line-height:1.25;font-family:Homizio;-inkscape-font-specification:'Homizio Light';letter-spacing:0px;word-spacing:0px;fill:#ffffff;fill-opacity:1;stroke:none;stroke-width:1px;stroke-linecap:butt;stroke-linejoin:miter;stroke-opacity:1"
                 id="path2929"
                 inkscape:connector-curvature="0" />
              <g
                 transform="translate(-60.785158,535.87574)"
                 id="g2945"
                 style="font-style:normal;font-weight:normal;line-height:0.01%;font-family:sans-serif;letter-spacing:0px;word-spacing:0px;fill:#ffffff;fill-opacity:1;stroke:none;stroke-width:1px;stroke-linecap:butt;stroke-linejoin:miter;stroke-opacity:1">
                <path
                   id="path2931"
                   style="font-style:normal;font-variant:normal;font-weight:300;font-stretch:normal;font-size:80px;line-height:1.25;font-family:Homizio;-inkscape-font-specification:'Homizio Light';fill:#ffffff;fill-opacity:1;stroke:none;stroke-opacity:1"
                   d="m 275.78515,349.62268 v -56.01563 h 14.02343 q 13.94532,0 21.21094,6.95313 7.26563,6.95312 7.26563,20.27343 0,12.8125 -7.8125,20.82032 -7.77344,7.96875 -21.48438,7.96875 z m 3.86718,-52.46094 v 48.94531 h 8.78907 q 12.46093,0 19.14062,-6.44531 6.67969,-6.48438 6.67969,-18.67188 0,-23.82812 -25.03906,-23.82812 z"
                   inkscape:connector-curvature="0" />
                <path
                   id="path2933"
                   style="font-style:normal;font-variant:normal;font-weight:300;font-stretch:normal;font-size:80px;line-height:1.25;font-family:Homizio;-inkscape-font-specification:'Homizio Light';fill:#ffffff;fill-opacity:1"
                   d="m 321.65283,349.62268 v -56.01563 h 26.17188 v 3.55469 h -22.30469 v 22.46094 h 20.70313 v 3.51562 h -20.70313 v 22.96875 h 23.59375 v 3.51563 z"
                   inkscape:connector-curvature="0" />
                <path
                   id="path2935"
                   style="font-style:normal;font-variant:normal;font-weight:300;font-stretch:normal;font-size:80px;line-height:1.25;font-family:Homizio;-inkscape-font-specification:'Homizio Light';fill:#ffffff;fill-opacity:1"
                   d="m 364.69139,350.52111 q -7.10938,-0.35156 -12.30469,-4.49218 l 2.38281,-2.89063 q 4.84375,3.86719 10.42969,3.86719 6.60156,0.0391 10,-2.65625 3.39844,-2.73438 3.39844,-7.61719 0,-4.29687 -2.30469,-6.83594 -2.26563,-2.57812 -9.88281,-6.99218 -8.51563,-4.96094 -10.78125,-8.28125 -2.26563,-3.35938 -2.26563,-7.73438 0,-5.9375 4.60938,-10.07812 4.60937,-4.14063 12.30468,-4.14063 7.10938,0.35156 12.30469,4.49219 l -2.38281,2.89062 q -4.84375,-3.86718 -10.42969,-3.86718 -5.70312,0 -9.0625,2.89062 -3.32031,2.89063 -3.32031,7.34375 0,4.29688 2.26562,6.83594 2.30469,2.53906 9.88282,6.91406 7.85156,4.45313 10.42968,7.92969 2.61719,3.4375 2.61719,7.92969 0,6.44531 -4.49219,10.50781 -4.45312,4.0625 -13.39843,3.98437 z"
                   inkscape:connector-curvature="0" />
              </g>
            </g>
            <g
               id="g4790">
              <path
                 inkscape:connector-curvature="0"
                 d="m 37.460938,937.84455 q 0,20.27344 -14.0625,20.27344 -2.1875,0 -4.648438,-0.625 l 1.445313,-3.47656 q 1.25,0.54687 3.28125,0.54687 5.390625,0 7.773437,-4.10156 2.382813,-4.0625 2.382813,-12.69531 v -44.72656 h 3.828125 z"
                 style="font-style:normal;font-variant:normal;font-weight:300;font-stretch:normal;font-size:80px;line-height:1.25;font-family:Homizio;-inkscape-font-specification:'Homizio Light';letter-spacing:0px;word-spacing:0px;fill:#ffffff;fill-opacity:1;stroke:none;stroke-width:1px;stroke-linecap:butt;stroke-linejoin:miter;stroke-opacity:1"
                 id="path2947" />
              <path
                 id="path2949"
                 style="font-style:normal;font-variant:normal;font-weight:300;font-stretch:normal;font-size:80px;line-height:1.25;font-family:Homizio;-inkscape-font-specification:'Homizio Light';letter-spacing:0px;word-spacing:0px;fill:#ffffff;fill-opacity:1;stroke:none;stroke-width:1px;stroke-linecap:butt;stroke-linejoin:miter;stroke-opacity:1"
                 d="m 81.562499,926.67268 q 0,23.35937 -19.92187,23.35937 -18.945316,0 -18.945316,-22.5 v -34.49218 h 3.828125 v 33.94531 q 0,19.49219 15.859371,19.49219 15.35156,0 15.35156,-18.94532 v -34.49218 h 3.82813 z"
                 inkscape:connector-curvature="0" />
              <path
                 id="path2951"
                 style="font-style:normal;font-variant:normal;font-weight:300;font-stretch:normal;font-size:80px;line-height:1.25;font-family:Homizio;-inkscape-font-specification:'Homizio Light';letter-spacing:0px;word-spacing:0px;fill:#ffffff;fill-opacity:1;stroke:none;stroke-width:1px;stroke-linecap:butt;stroke-linejoin:miter;stroke-opacity:1"
                 d="m 114.02344,892.10237 q 8.47656,0.15625 14.6875,5.46875 l -3.04688,2.77343 q -5.15625,-4.72656 -12.1875,-4.72656 -10.58594,0 -17.031251,7.22656 -6.40625,7.22657 -6.40625,18.4375 0,11.79688 6.01563,18.51563 6.054681,6.67969 16.289061,6.67969 7.57812,0 13.28125,-3.28125 v -18.47657 h -13.20313 v -3.51562 h 17.07032 v 23.94531 q -8.67188,4.88281 -17.85157,4.88281 -11.44531,0 -18.515621,-7.77343 -7.07031,-7.77344 -7.07031,-20.39063 0,-12.73437 7.61718,-21.25 7.617191,-8.51562 20.351571,-8.51562 z"
                 inkscape:connector-curvature="0" />
              <path
                 id="path2953"
                 style="font-style:normal;font-variant:normal;font-weight:300;font-stretch:normal;font-size:80px;line-height:1.25;font-family:Homizio;-inkscape-font-specification:'Homizio Light';letter-spacing:0px;word-spacing:0px;fill:#ffffff;fill-opacity:1;stroke:none;stroke-width:1px;stroke-linecap:butt;stroke-linejoin:miter;stroke-opacity:1"
                 d="m 134.96094,949.05549 v -56.01562 h 26.17187 v 3.55468 h -22.30469 v 22.46094 h 20.70313 v 3.51563 h -20.70313 v 22.96875 h 23.59375 v 3.51562 z"
                 inkscape:connector-curvature="0" />
              <path
                 sodipodi:nodetypes="cccccscccccccscccc"
                 d="m 206.1328,949.05549 -33.35937,-45.27344 c -0.67709,-0.91145 -1.27605,-1.82291 -1.79688,-2.73437 l -0.50781,-0.78125 h -0.15625 c 0.0521,0.67708 0.0781,1.49739 0.0781,2.46094 v 46.32812 h -3.86718 v -56.01562 h 2.96875 l 33.125,44.88281 c 0.72917,0.98958 1.52344,2.1875 2.38281,3.59375 h 0.19531 c -0.13021,-1.82292 -0.19531,-3.38542 -0.19531,-4.6875 v -43.78906 h 3.86719 v 56.01562 z"
                 style="font-style:normal;font-variant:normal;font-weight:300;font-stretch:normal;font-size:80px;line-height:1.25;font-family:Homizio;-inkscape-font-specification:'Homizio Light';letter-spacing:0px;word-spacing:0px;fill:#ffffff;fill-opacity:1;stroke:none;stroke-width:1px;stroke-linecap:butt;stroke-linejoin:miter;stroke-opacity:1"
                 id="path2955"
                 inkscape:connector-curvature="0" />
              <path
                 d="m 215,949.05549 v -56.01562 h 14.02344 q 13.94531,0 21.21093,6.95312 7.26563,6.95313 7.26563,20.27344 0,12.8125 -7.8125,20.82031 -7.77344,7.96875 -21.48438,7.96875 z m 3.86719,-52.46094 v 48.94532 h 8.78906 q 12.46094,0 19.14062,-6.44532 6.67969,-6.48437 6.67969,-18.67187 0,-23.82813 -25.03906,-23.82813 z"
                 style="font-style:normal;font-variant:normal;font-weight:300;font-stretch:normal;font-size:80px;line-height:1.25;font-family:Homizio;-inkscape-font-specification:'Homizio Light';letter-spacing:0px;word-spacing:0px;fill:#ffffff;fill-opacity:1;stroke:none;stroke-width:1px;stroke-linecap:butt;stroke-linejoin:miter;stroke-opacity:1"
                 id="path2957"
                 inkscape:connector-curvature="0" />
            </g>
            <g
               id="g4807">
              <path
                 d="m 145.42968,1013.6658 q -11.48437,0 -18.75,-7.6953 -7.22656,-7.7344 -7.22656,-20.15628 0,-13.63281 7.85156,-21.83594 7.85156,-8.24218 19.96094,-8.24218 8.94531,0.15625 15.15625,5.46875 l -3.04688,2.77343 q -5.15625,-4.72656 -12.1875,-4.72656 -10.54687,0 -17.14843,7.14844 -6.60157,7.14844 -6.60157,19.02344 0,11.44531 6.28907,18.0859 6.32812,6.6016 16.01562,6.6016 7.03125,0 12.1875,-4.7266 l 3.04688,2.7735 q -6.21094,5.3125 -15.54688,5.5078 z"
                 style="font-style:normal;font-variant:normal;font-weight:300;font-stretch:normal;font-size:80px;line-height:1.25;font-family:Homizio;-inkscape-font-specification:'Homizio Light';letter-spacing:0px;word-spacing:0px;fill:#ffffff;fill-opacity:1;stroke:none;stroke-width:1px;stroke-linecap:butt;stroke-linejoin:miter;stroke-opacity:1"
                 id="path2974"
                 inkscape:connector-curvature="0" />
              <path
                 sodipodi:nodetypes="ccccccccccccc"
                 d="m 204.99997,1012.6892 v -26.87498 h -34.60938 v 26.87498 h -3.86718 v -56.0156 h 3.86718 v 25.62531 l 34.60938,-3.1e-4 v -25.625 h 3.86719 v 56.0156 z"
                 style="font-style:normal;font-variant:normal;font-weight:300;font-stretch:normal;font-size:80px;line-height:1.25;font-family:Homizio;-inkscape-font-specification:'Homizio Light';letter-spacing:0px;word-spacing:0px;fill:#ffffff;fill-opacity:1;stroke:none;stroke-width:1.0351063px;stroke-linecap:butt;stroke-linejoin:miter;stroke-opacity:1"
                 id="path2976"
                 inkscape:connector-curvature="0" />
              <path
                 inkscape:connector-curvature="0"
                 d="m 240.97656,1013.6658 q -11.875,0 -18.94531,-7.8906 Q 215,997.88453 215,985.26735 q 0,-13.39844 7.22656,-21.44532 7.26563,-8.08593 19.80469,-8.08593 11.32813,0 18.32031,7.77343 7.03125,7.73438 7.03125,20.3125 0,13.90625 -7.1875,21.87497 -7.1875,7.9688 -19.21875,7.9688 z m 0.39063,-54.41408 q -9.76563,0 -16.09375,7.07031 -6.28906,7.07032 -6.28906,18.51563 0,11.5625 5.97656,18.43754 5.97656,6.8359 15.9375,6.8359 10.39062,0 16.44531,-6.7578 6.05469,-6.79689 6.05469,-18.90627 0,-11.875 -5.9375,-18.51562 -5.89844,-6.67969 -16.09375,-6.67969 z"
                 style="font-style:normal;font-variant:normal;font-weight:300;font-stretch:normal;font-size:80px;line-height:1.25;font-family:Homizio;-inkscape-font-specification:'Homizio Light';letter-spacing:0px;word-spacing:0px;fill:#ffffff;fill-opacity:1;stroke:none;stroke-width:1px;stroke-linecap:butt;stroke-linejoin:miter;stroke-opacity:1"
                 id="path2978" />
              <path
                 inkscape:connector-curvature="0"
                 d="m 301.01563,1012.6892 -14.10157,-24.96092 h -10.70312 v 24.96092 h -3.86719 v -56.0156 h 15.54688 q 7.42187,0 11.64062,4.02343 4.25781,3.98438 4.25781,10.54688 0,6.05469 -3.47656,10.11719 -3.47656,4.0625 -9.72656,5.23437 v 0.15625 l 14.80469,25.93748 z m -24.80469,-52.46092 v 23.98438 h 9.64844 q 6.40625,0 10.15625,-3.35938 3.78906,-3.35937 3.78906,-9.21875 0,-5.35156 -3.39844,-8.35937 -3.39844,-3.04688 -9.72656,-3.04688 z"
                 style="font-style:normal;font-variant:normal;font-weight:300;font-stretch:normal;font-size:80px;line-height:1.25;font-family:Homizio;-inkscape-font-specification:'Homizio Light';letter-spacing:0px;word-spacing:0px;fill:#ffffff;fill-opacity:1;stroke:none;stroke-width:1px;stroke-linecap:butt;stroke-linejoin:miter;stroke-opacity:1"
                 id="path2980" />
              <g
                 id="g4796">
                <circle
                   cy="978.08014"
                   cx="182.88576"
                   id="path2999"
                   style="opacity:1;fill:#ffffff;fill-opacity:1;stroke:none;stroke-width:0.796875;stroke-miterlimit:4;stroke-dasharray:none;stroke-opacity:1"
                   r="2.34375" />
                <circle
                   cy="978.08014"
                   cx="192.50493"
                   id="path2999-8"
                   style="opacity:1;fill:#ffffff;fill-opacity:1;stroke:none;stroke-width:0.76084995;stroke-miterlimit:4;stroke-dasharray:none;stroke-opacity:1"
                   r="2.34375" />
                <circle
                   cy="990.03326"
                   cx="182.88576"
                   id="path2999-81"
                   style="opacity:1;fill:#ffffff;fill-opacity:1;stroke:none;stroke-width:0.76084995;stroke-miterlimit:4;stroke-dasharray:none;stroke-opacity:1"
                   r="2.34375" />
                <circle
                   cy="990.03326"
                   cx="192.50493"
                   id="path2999-8-2"
                   style="opacity:1;fill:#ffffff;fill-opacity:1;stroke:none;stroke-width:0.76084995;stroke-miterlimit:4;stroke-dasharray:none;stroke-opacity:1"
                   r="2.34375" />
              </g>
            </g>
            <g
               id="g4847">
              <g
                 id="g4814">
                <path
                   inkscape:connector-curvature="0"
                   id="path960"
                   style="font-style:normal;font-variant:normal;font-weight:300;font-stretch:normal;font-size:16px;line-height:1.25;font-family:Homizio;-inkscape-font-specification:'Homizio Light';letter-spacing:1px;word-spacing:0px;fill:#ffffff;fill-opacity:1;stroke:none;stroke-width:1.25999761"
                   d="m 105.16912,1033.4091 v -14.1159 h 3.7111 q 1.66359,0 2.64796,0.8958 0.98437,0.8957 0.98437,2.3723 0,1.2305 -0.65953,2.1361 -0.64967,0.8958 -1.82109,1.2698 v 0.039 q 1.46672,0.1378 2.31328,1.0532 0.84655,0.9057 0.84655,2.3133 0,1.7817 -1.15171,2.9138 -1.15171,1.1221 -3.08109,1.1221 z m 0.97453,-13.2201 v 5.4632 h 1.96876 q 1.53561,0 2.46094,-0.7875 0.9253,-0.7875 0.9253,-2.1361 0,-2.5396 -3.00234,-2.5396 z m 0,6.3492 v 5.9849 h 2.61845 q 1.66358,0 2.53967,-0.7973 0.88595,-0.7974 0.88595,-2.2641 0,-2.9235 -3.96704,-2.9235 z" />
                <path
                   inkscape:connector-curvature="0"
                   id="path962"
                   style="font-style:normal;font-variant:normal;font-weight:300;font-stretch:normal;font-size:16px;line-height:1.25;font-family:Homizio;-inkscape-font-specification:'Homizio Light';letter-spacing:1px;word-spacing:0px;fill:#ffffff;fill-opacity:1;stroke:none;stroke-width:1.25999761"
                   d="m 125.22089,1033.4091 -1.61437,-4.3903 h -6.1228 l -1.61436,4.3903 h -1.07299 l 5.32547,-14.1159 h 0.92531 l 5.2664,14.1159 z m -4.33123,-11.8125 q -0.1082,-0.2953 -0.1772,-0.5808 -0.0689,-0.2461 -0.14765,-0.4921 h -0.0392 q -0.16734,0.6496 -0.32485,1.0532 l -2.37234,6.5461 h 5.44359 z" />
                <path
                   inkscape:connector-curvature="0"
                   id="path964"
                   style="font-style:normal;font-variant:normal;font-weight:300;font-stretch:normal;font-size:16px;line-height:1.25;font-family:Homizio;-inkscape-font-specification:'Homizio Light';letter-spacing:1px;word-spacing:0px;fill:#ffffff;fill-opacity:1;stroke:none;stroke-width:1.25999761"
                   d="m 128.48566,1033.4091 v -14.1159 h 3.53391 q 3.5142,0 5.34514,1.7522 1.83093,1.7522 1.83093,5.1089 0,3.2287 -1.96874,5.2467 -1.9589,2.0081 -5.41405,2.0081 z m 0.97453,-13.2201 v 12.3342 h 2.21484 q 3.14016,0 4.82344,-1.6242 1.68327,-1.6341 1.68327,-4.7054 0,-6.0046 -6.30984,-6.0046 z" />
                <path
                   inkscape:connector-curvature="0"
                   id="path966"
                   style="font-style:normal;font-variant:normal;font-weight:300;font-stretch:normal;font-size:16px;line-height:1.25;font-family:Homizio;-inkscape-font-specification:'Homizio Light';letter-spacing:1px;word-spacing:0px;fill:#ffffff;fill-opacity:1;stroke:none;stroke-width:1.25999761"
                   d="m 141.36777,1033.4091 v -14.1159 h 6.59529 v 0.8958 h -5.62076 v 5.6601 h 5.21717 v 0.886 h -5.21717 v 5.7881 h 5.94562 v 0.8859 z" />
                <path
                   sodipodi:nodetypes="cccccscccccccscccc"
                   inkscape:connector-curvature="0"
                   id="path968"
                   style="font-style:normal;font-variant:normal;font-weight:300;font-stretch:normal;font-size:16px;line-height:1.25;font-family:Homizio;-inkscape-font-specification:'Homizio Light';letter-spacing:1px;word-spacing:0px;fill:#ffffff;fill-opacity:1;stroke:none;stroke-width:1.25999761"
                   d="m 160.28742,1033.4091 -8.40654,-11.4089 c -0.17062,-0.2297 -0.32157,-0.4594 -0.45282,-0.6891 l -0.12795,-0.1968 h -0.0392 c 0.0134,0.1706 0.0196,0.3773 0.0196,0.6201 v 11.6747 h -0.97453 v -14.1159 h 0.74812 l 8.34747,11.3104 c 0.18375,0.2494 0.38391,0.5513 0.60047,0.9057 h 0.0493 c -0.0329,-0.4594 -0.0493,-0.8532 -0.0493,-1.1813 l -4.3e-4,-11.0348 h 0.97501 l -4e-5,14.1159 z" />
              </g>
              <g
                 id="g4827">
                <path
                   d="m 225.86671,1033.4091 h -0.67969 l -2.64414,-8.9437 q -0.19894,-0.688 -0.22381,-1.119 h -0.0332 q -0.0249,0.3647 -0.25695,1.1024 l -2.81823,8.9603 h -0.67968 l -3.53106,-11.8862 h 0.92007 l 2.71046,9.5239 q 0.18235,0.6465 0.25695,1.0527 h 0.0332 q 0.0497,-0.3067 0.29012,-1.0527 l 2.93426,-9.5239 h 0.41445 l 2.69388,9.5239 q 0.19063,0.6631 0.25695,1.0527 h 0.0332 q 0.0414,-0.2321 0.13262,-0.5305 l 2.78507,-10.0461 h 0.8869 z"
                   style="font-style:normal;font-variant:normal;font-weight:300;font-stretch:normal;font-size:medium;line-height:1.25;font-family:Homizio;-inkscape-font-specification:'Homizio Light';letter-spacing:0.9375px;word-spacing:0px;fill:#ffffff;fill-opacity:1;stroke:none;stroke-width:1.06097507"
                   id="path976"
                   inkscape:connector-curvature="0" />
                <path
                   d="m 239.10401,1028.6554 q 0,4.9568 -4.22732,4.9568 -4.02009,0 -4.02009,-4.7744 v -7.3191 h 0.8123 v 7.203 q 0,4.1362 3.36528,4.1362 3.25753,0 3.25753,-4.0201 v -7.3191 h 0.8123 z m -2.52809,-7.9904 q -0.22381,0 -0.40616,-0.1575 -0.18235,-0.1658 -0.18235,-0.4393 0,-0.257 0.17406,-0.4145 0.18236,-0.1575 0.39787,-0.1575 0.24037,0 0.43102,0.1658 0.19893,0.1575 0.19893,0.4062 0,0.2569 -0.18235,0.431 -0.17407,0.1658 -0.43102,0.1658 z m -2.7602,0 q -0.23209,0 -0.41445,-0.1575 -0.18235,-0.1658 -0.18235,-0.4393 0,-0.257 0.18235,-0.4145 0.18236,-0.1575 0.39787,-0.1575 0.24038,0 0.43102,0.1658 0.19065,0.1575 0.19065,0.4062 0,0.2569 -0.17407,0.431 -0.17407,0.1658 -0.43102,0.1658 z"
                   style="font-style:normal;font-variant:normal;font-weight:300;font-stretch:normal;font-size:medium;line-height:1.25;font-family:Homizio;-inkscape-font-specification:'Homizio Light';letter-spacing:0.9375px;word-spacing:0px;fill:#ffffff;fill-opacity:1;stroke:none;stroke-width:1.06097507"
                   id="path978"
                   inkscape:connector-curvature="0" />
                <path
                   d="m 247.15653,1033.4091 -2.99228,-5.2966 h -2.27116 v 5.2966 h -0.8206 v -11.8863 h 3.29897 q 1.57489,0 2.47009,0.8538 0.90349,0.8455 0.90349,2.238 0,1.2848 -0.73772,2.1468 -0.7377,0.862 -2.06393,1.1107 v 0.033 l 3.14149,5.5038 z m -5.26344,-11.132 v 5.0894 h 2.04735 q 1.35937,0 2.15511,-0.7128 0.80402,-0.7129 0.80402,-1.9562 0,-1.1356 -0.72113,-1.7738 -0.72114,-0.6466 -2.06393,-0.6466 z"
                   style="font-style:normal;font-variant:normal;font-weight:300;font-stretch:normal;font-size:medium;line-height:1.25;font-family:Homizio;-inkscape-font-specification:'Homizio Light';letter-spacing:0.9375px;word-spacing:0px;fill:#ffffff;fill-opacity:1;stroke:none;stroke-width:1.06097507"
                   id="path980"
                   inkscape:connector-curvature="0" />
                <path
                   d="m 253.19772,1022.2771 v 11.132 h -0.8123 v -11.132 h -3.4316 v -0.7542 h 7.6755 v 0.7542 z"
                   style="font-style:normal;font-variant:normal;font-weight:300;font-stretch:normal;font-size:medium;line-height:1.25;font-family:Homizio;-inkscape-font-specification:'Homizio Light';letter-spacing:0.9375px;word-spacing:0px;fill:#ffffff;fill-opacity:1;stroke:none;stroke-width:1.06097507"
                   id="path982"
                   inkscape:connector-curvature="0" />
                <path
                   d="m 262.08339,1022.2771 v 11.132 h -0.81231 v -11.132 h -3.43159 v -0.7542 h 7.67549 v 0.7542 z"
                   style="font-style:normal;font-variant:normal;font-weight:300;font-stretch:normal;font-size:medium;line-height:1.25;font-family:Homizio;-inkscape-font-specification:'Homizio Light';letter-spacing:0.9375px;word-spacing:0px;fill:#ffffff;fill-opacity:1;stroke:none;stroke-width:1.06097507"
                   id="path984"
                   inkscape:connector-curvature="0" />
                <path
                   d="m 267.02355,1033.4091 v -11.8862 h 5.55354 v 0.7542 h -4.73294 v 4.7661 h 4.3931 v 0.746 h -4.3931 v 4.8739 h 5.00648 v 0.746 z"
                   style="font-style:normal;font-variant:normal;font-weight:300;font-stretch:normal;font-size:medium;line-height:1.25;font-family:Homizio;-inkscape-font-specification:'Homizio Light';letter-spacing:0.9375px;word-spacing:0px;fill:#ffffff;fill-opacity:1;stroke:none;stroke-width:1.06097507"
                   id="path986"
                   inkscape:connector-curvature="0" />
                <path
                   d="m 285.20718,1033.4091 v -8.4381 l 0.0912,-1.7489 h -0.0331 l -4.65835,10.187 h -0.26525 l -4.67491,-10.2202 0.0581,1.5832 v 8.637 h -0.8206 v -11.8862 h 0.76258 l 4.43453,9.5736 q 0.0414,0.083 0.0912,0.2238 0.0497,0.1409 0.10774,0.2818 0.083,0.2155 0.17406,0.4808 h 0.0497 l 0.0912,-0.2653 q 0.008,-0.033 0.28183,-0.7874 l 4.36823,-9.5073 h 0.72942 v 11.8862 z"
                   style="font-style:normal;font-variant:normal;font-weight:300;font-stretch:normal;font-size:medium;line-height:1.25;font-family:Homizio;-inkscape-font-specification:'Homizio Light';letter-spacing:0.9375px;word-spacing:0px;fill:#ffffff;fill-opacity:1;stroke:none;stroke-width:1.06097507"
                   id="path988"
                   inkscape:connector-curvature="0" />
                <path
                   d="m 288.04826,1033.4091 v -11.8863 h 3.1249 q 1.40082,0 2.2297,0.7543 0.8289,0.7543 0.8289,1.9977 0,1.0361 -0.55536,1.7986 -0.54707,0.7543 -1.53344,1.0693 v 0.033 q 1.23504,0.116 1.94788,0.8869 0.71285,0.7625 0.71285,1.9479 0,1.5002 -0.9698,2.4535 -0.9698,0.9449 -2.59442,0.9449 z m 0.8206,-11.132 v 4.6004 h 1.65777 q 1.29307,0 2.07221,-0.6632 0.77916,-0.6631 0.77916,-1.7986 0,-2.1386 -2.52811,-2.1386 z m 0,5.3463 v 5.0397 h 2.20484 q 1.40081,0 2.13853,-0.6714 0.746,-0.6714 0.746,-1.9065 0,-2.4618 -3.34042,-2.4618 z"
                   style="font-style:normal;font-variant:normal;font-weight:300;font-stretch:normal;font-size:medium;line-height:1.25;font-family:Homizio;-inkscape-font-specification:'Homizio Light';letter-spacing:0.9375px;word-spacing:0px;fill:#ffffff;fill-opacity:1;stroke:none;stroke-width:1.06097507"
                   id="path990"
                   inkscape:connector-curvature="0" />
                <path
                   d="m 296.85726,1033.4091 v -11.8862 h 5.55355 v 0.7542 h -4.73295 v 4.7661 h 4.39311 v 0.746 h -4.39311 v 4.8739 h 5.00648 v 0.746 z"
                   style="font-style:normal;font-variant:normal;font-weight:300;font-stretch:normal;font-size:medium;line-height:1.25;font-family:Homizio;-inkscape-font-specification:'Homizio Light';letter-spacing:0.9375px;word-spacing:0px;fill:#ffffff;fill-opacity:1;stroke:none;stroke-width:1.06097507"
                   id="path992"
                   inkscape:connector-curvature="0" />
                <path
                   d="m 310.82193,1033.4091 -2.99228,-5.2966 h -2.27116 v 5.2966 h -0.82059 v -11.8863 h 3.29897 q 1.57489,0 2.47008,0.8538 0.90349,0.8455 0.90349,2.238 0,1.2848 -0.73771,2.1468 -0.73771,0.862 -2.06393,1.1107 v 0.033 l 3.14149,5.5038 z m -5.26344,-11.132 v 5.0894 h 2.04736 q 1.35937,0 2.1551,-0.7128 0.80402,-0.7129 0.80402,-1.9562 0,-1.1356 -0.72113,-1.7738 -0.72113,-0.6466 -2.06393,-0.6466 z"
                   style="font-style:normal;font-variant:normal;font-weight:300;font-stretch:normal;font-size:medium;line-height:1.25;font-family:Homizio;-inkscape-font-specification:'Homizio Light';letter-spacing:0.9375px;word-spacing:0px;fill:#ffffff;fill-opacity:1;stroke:none;stroke-width:1.06097507"
                   id="path994"
                   inkscape:connector-curvature="0" />
                <path
                   d="m 318.51381,1021.3198 q 1.79868,0.033 3.11661,1.1604 l -0.64654,0.5885 q -1.09412,-1.0029 -2.58612,-1.0029 -2.24628,0 -3.61394,1.5334 -1.35938,1.5335 -1.35938,3.9124 0,2.5032 1.27649,3.9289 1.28477,1.4174 3.45646,1.4174 1.60803,0 2.81821,-0.6963 v -3.9206 h -2.80164 v -0.746 h 3.62224 v 5.0811 q -1.84013,1.0361 -3.78802,1.0361 -2.42864,0 -3.92892,-1.6495 -1.50028,-1.6495 -1.50028,-4.3268 0,-2.7022 1.61633,-4.5092 1.61632,-1.8069 4.3185,-1.8069 z"
                   style="font-style:normal;font-variant:normal;font-weight:300;font-stretch:normal;font-size:medium;line-height:1.25;font-family:Homizio;-inkscape-font-specification:'Homizio Light';letter-spacing:0.9375px;word-spacing:0px;fill:#ffffff;fill-opacity:1;stroke:none;stroke-width:1.06097507"
                   id="path996"
                   inkscape:connector-curvature="0" />
              </g>
            </g>
          </g>
          <g
             id="g4772">
            <rect
               style="fill:#ffffff;fill-opacity:1;stroke:none;stroke-width:13.46762276;stroke-miterlimit:4;stroke-dasharray:none;stroke-opacity:1"
               id="rect4616"
               width="0.97495353"
               height="203.92595"
               x="167.97231"
               y="829.48315" />
            <rect
               style="fill:#ffffff;fill-opacity:1;stroke:none;stroke-width:13.46762276;stroke-miterlimit:4;stroke-dasharray:none;stroke-opacity:1"
               id="rect4616-5"
               width="0.97495353"
               height="203.92593"
               x="177.59007"
               y="829.48315" />
            <rect
               style="fill:#ffffff;fill-opacity:1;stroke:none;stroke-width:13.46762276;stroke-miterlimit:4;stroke-dasharray:none;stroke-opacity:1"
               id="rect4616-9"
               width="0.97495353"
               height="203.92593"
               x="187.20786"
               y="829.48315" />
            <rect
               style="fill:#ffffff;fill-opacity:1;stroke:none;stroke-width:13.46762276;stroke-miterlimit:4;stroke-dasharray:none;stroke-opacity:1"
               id="rect4616-56"
               width="0.97495353"
               height="203.92593"
               x="196.82561"
               y="829.48315" />
            <rect
               style="fill:#ffffff;fill-opacity:1;stroke:none;stroke-width:13.46762276;stroke-miterlimit:4;stroke-dasharray:none;stroke-opacity:1"
               id="rect4616-2"
               width="0.97495353"
               height="203.92593"
               x="206.44339"
               y="829.48315" />
          </g>
        </g>
      </g>
    </g>
  </g>
</svg>
