<?xml version="1.0" encoding="UTF-8" standalone="no"?>
<!-- Created with Inkscape (http://www.inkscape.org/) -->
<svg
   xmlns:dc="http://purl.org/dc/elements/1.1/"
   xmlns:cc="http://creativecommons.org/ns#"
   xmlns:rdf="http://www.w3.org/1999/02/22-rdf-syntax-ns#"
   xmlns:svg="http://www.w3.org/2000/svg"
   xmlns="http://www.w3.org/2000/svg"
   xmlns:sodipodi="http://sodipodi.sourceforge.net/DTD/sodipodi-0.dtd"
   xmlns:inkscape="http://www.inkscape.org/namespaces/inkscape"
   width="282.23749"
   height="80.521255"
   id="svg2"
   sodipodi:version="0.32"
   inkscape:version="0.46"
   sodipodi:docname="lmr_logo.svg"
   inkscape:output_extension="org.inkscape.output.svg.inkscape"
   version="1.0">
  <defs
     id="defs4">
    <inkscape:perspective
       sodipodi:type="inkscape:persp3d"
       inkscape:vp_x="0 : 526.18109 : 1"
       inkscape:vp_y="0 : 1000 : 0"
       inkscape:vp_z="744.09448 : 526.18109 : 1"
       inkscape:persp3d-origin="372.04724 : 350.78739 : 1"
       id="perspective10" />
    <linearGradient
       id="linearGradient2434"
       spreadMethod="pad"
       gradientTransform="matrix(-47.85556,0,0,-98.916016,254.92676,149.18848)"
       gradientUnits="userSpaceOnUse"
       y2="0"
       x2="1"
       y1="0"
       x1="0">
      <stop
         id="stop2436"
         offset="0"
         style="stop-opacity:1;stop-color:#ffffff" />
      <stop
         id="stop2438"
         offset="0.837079"
         style="stop-opacity:1;stop-color:#d3d3d3" />
      <stop
         id="stop2440"
         offset="0.837079"
         style="stop-opacity:1;stop-color:#d3d3d3" />
      <stop
         id="stop2442"
         offset="1"
         style="stop-opacity:1;stop-color:#d3d3d3" />
    </linearGradient>
    <linearGradient
       id="linearGradient2414"
       spreadMethod="pad"
       gradientTransform="matrix(-176.45187,0,0,-364.7207,205.58789,149.18848)"
       gradientUnits="userSpaceOnUse"
       y2="0"
       x2="1"
       y1="0"
       x1="0">
      <stop
         id="stop2416"
         offset="0"
         style="stop-opacity:1;stop-color:#fff200" />
      <stop
         id="stop2418"
         offset="1"
         style="stop-opacity:1;stop-color:#ffffff" />
    </linearGradient>
    <clipPath
       id="clipPath2398"
       clipPathUnits="userSpaceOnUse">
      <path
         id="path2400"
         d="M 0,283.465 L 283.465,283.465 L 283.465,0 L 0,0 L 0,283.465 z" />
    </clipPath>
    <inkscape:perspective
       id="perspective2390"
       inkscape:persp3d-origin="372.04724 : 350.78739 : 1"
       inkscape:vp_z="744.09448 : 526.18109 : 1"
       inkscape:vp_y="0 : 1000 : 0"
       inkscape:vp_x="0 : 526.18109 : 1"
       sodipodi:type="inkscape:persp3d" />
  </defs>
  <sodipodi:namedview
     id="base"
     pagecolor="#ffffff"
     bordercolor="#666666"
     borderopacity="1.0"
     inkscape:pageopacity="0.0"
     inkscape:pageshadow="2"
     inkscape:zoom="2.03"
     inkscape:cx="158.14106"
     inkscape:cy="47.245915"
     inkscape:document-units="px"
     inkscape:current-layer="layer1"
     showgrid="false"
     inkscape:window-width="1024"
     inkscape:window-height="749"
     inkscape:window-x="-8"
     inkscape:window-y="-8" />
  <metadata
     id="metadata7">
    <rdf:RDF>
      <cc:Work
         rdf:about="">
        <dc:format>image/svg+xml</dc:format>
        <dc:type
           rdf:resource="http://purl.org/dc/dcmitype/StillImage" />
      </cc:Work>
    </rdf:RDF>
  </metadata>
  <g
     inkscape:label="Ebene 1"
     inkscape:groupmode="layer"
     id="layer1"
     transform="translate(-264.96257,-428.23339)">
    <g
       transform="matrix(1.25,0,0,-1.25,228.54132,685.36464)"
       inkscape:label="Logo_LMR_farbig"
       id="g2392">
      <g
         id="g2394">
        <g
           clip-path="url(#clipPath2398)"
           id="g2396">
          <g
             id="g2402">
            <g
               id="g2404">
              <g
                 id="g2410">
                <g
                   id="g2412">
                  <path
                     id="path2420"
                     style="fill:url(#linearGradient2414);stroke:none"
                     d="M 205.589,157.088 L 29.137,157.088 L 29.273,141.289 L 205.589,141.289 L 205.589,157.088 z" />
                </g>
              </g>
            </g>
          </g>
          <g
             id="g2422">
            <g
               id="g2424">
              <g
                 id="g2430">
                <g
                   id="g2432">
                  <path
                     id="path2444"
                     style="fill:url(#linearGradient2434);stroke:none"
                     d="M 254.927,157.088 L 207.072,157.088 L 207.072,141.288 L 254.927,141.288 L 254.927,157.088 z" />
                </g>
              </g>
            </g>
          </g>
          <path
             id="path2446"
             style="fill:#231f20;fill-opacity:1;fill-rule:nonzero;stroke:none"
             d="M 32.406,149.421 L 33.229,149.421 C 34.008,149.421 35.044,149.624 35.044,150.81 C 35.044,151.888 34.051,152.037 33.421,152.037 L 32.406,152.037 L 32.406,149.421 z M 32.385,145.865 L 33.154,145.865 C 34.147,145.865 35.268,146.132 35.268,147.317 C 35.268,148.642 34.125,148.78 33.036,148.78 L 32.385,148.78 L 32.385,145.865 z M 31.648,152.678 L 33.421,152.678 C 34.638,152.678 35.781,152.272 35.781,150.842 C 35.781,149.891 35.343,149.325 34.424,149.144 L 34.424,149.122 C 35.364,148.951 36.005,148.332 36.005,147.35 C 36.005,145.727 34.681,145.225 33.132,145.225 L 31.648,145.225 L 31.648,152.678 z" />
          <path
             id="path2448"
             style="fill:#231f20;fill-opacity:1;fill-rule:nonzero;stroke:none"
             d="M 40.287,151.974 L 38.664,147.862 L 41.899,147.862 L 40.287,151.974 z M 39.924,152.678 L 40.756,152.678 L 43.714,145.225 L 42.946,145.225 L 42.145,147.222 L 38.386,147.222 L 37.585,145.225 L 36.87,145.225 L 39.924,152.678 z" />
          <path
             id="path2450"
             style="fill:#231f20;fill-opacity:1;fill-rule:nonzero;stroke:none"
             d="M 45.871,145.865 L 46.48,145.865 C 48.594,145.865 49.972,146.72 49.972,149.005 C 49.972,151.279 48.616,152.037 46.95,152.037 L 45.871,152.037 L 45.871,145.865 z M 45.134,152.678 L 46.982,152.678 C 49.651,152.678 50.708,151.141 50.708,148.962 C 50.708,146.261 48.904,145.225 46.437,145.225 L 45.134,145.225 L 45.134,152.678 z" />
          <path
             id="path2452"
             style="fill:#231f20;fill-opacity:1;fill-rule:nonzero;stroke:none"
             d="M 52.748,152.678 L 56.399,152.678 L 56.399,152.037 L 53.484,152.037 L 53.484,149.379 L 56.25,149.379 L 56.25,148.737 L 53.484,148.737 L 53.484,145.865 L 56.527,145.865 L 56.527,145.225 L 52.748,145.225 L 52.748,152.678 z" />
          <path
             id="path2454"
             style="fill:#231f20;fill-opacity:1;fill-rule:nonzero;stroke:none"
             d="M 58.631,152.678 L 59.56,152.678 L 63.351,146.122 L 63.373,146.122 L 63.373,152.678 L 64.109,152.678 L 64.109,145.225 L 63.116,145.225 L 59.39,151.653 L 59.368,151.653 L 59.368,145.225 L 58.631,145.225 L 58.631,152.678 z" />
          <path
             id="path2456"
             style="fill:#231f20;fill-opacity:1;fill-rule:nonzero;stroke:none"
             d="M 65.796,148.471 L 68.476,148.471 L 68.476,147.735 L 65.796,147.735 L 65.796,148.471 z" />
          <path
             id="path2458"
             style="fill:#231f20;fill-opacity:1;fill-rule:nonzero;stroke:none"
             d="M 77.167,145.225 L 76.292,145.225 L 74.402,151.845 L 74.381,151.845 L 72.458,145.225 L 71.573,145.225 L 69.437,152.678 L 70.195,152.678 L 72.032,146.058 L 72.053,146.058 L 73.964,152.678 L 74.851,152.678 L 76.73,146.058 L 76.751,146.058 L 78.62,152.678 L 79.325,152.678 L 77.167,145.225 z" />
          <path
             id="path2460"
             style="fill:#231f20;fill-opacity:1;fill-rule:nonzero;stroke:none"
             d="M 83.927,154.216 L 84.728,154.216 L 84.728,153.319 L 83.927,153.319 L 83.927,154.216 z M 82.101,154.216 L 82.902,154.216 L 82.902,153.319 L 82.101,153.319 L 82.101,154.216 z M 86.116,147.83 C 86.116,145.631 84.503,145.097 83.415,145.097 C 82.326,145.097 80.713,145.631 80.713,147.83 L 80.713,152.678 L 81.45,152.678 L 81.45,147.83 C 81.45,146.612 82.123,145.737 83.415,145.737 C 84.707,145.737 85.379,146.612 85.379,147.83 L 85.379,152.678 L 86.116,152.678 L 86.116,147.83 z" />
          <path
             id="path2462"
             style="fill:#231f20;fill-opacity:1;fill-rule:nonzero;stroke:none"
             d="M 89.074,149.379 L 89.853,149.379 C 90.718,149.379 91.71,149.71 91.71,150.745 C 91.71,151.963 90.846,152.037 89.832,152.037 L 89.074,152.037 L 89.074,149.379 z M 88.336,152.678 L 90.258,152.678 C 91.583,152.678 92.448,152.112 92.448,150.745 C 92.448,149.784 91.71,149.144 90.792,149.026 L 90.792,149.005 C 91.39,148.93 91.519,148.609 91.753,148.107 L 93.024,145.225 L 92.212,145.225 L 91.134,147.745 C 90.708,148.706 90.387,148.737 89.682,148.737 L 89.074,148.737 L 89.074,145.225 L 88.336,145.225 L 88.336,152.678 z" />
          <path
             id="path2464"
             style="fill:#231f20;fill-opacity:1;fill-rule:nonzero;stroke:none"
             d="M 96.131,152.037 L 93.931,152.037 L 93.931,152.678 L 99.068,152.678 L 99.068,152.037 L 96.868,152.037 L 96.868,145.225 L 96.131,145.225 L 96.131,152.037 z" />
          <path
             id="path2466"
             style="fill:#231f20;fill-opacity:1;fill-rule:nonzero;stroke:none"
             d="M 102.324,152.037 L 100.124,152.037 L 100.124,152.678 L 105.26,152.678 L 105.26,152.037 L 103.06,152.037 L 103.06,145.225 L 102.324,145.225 L 102.324,152.037 z" />
          <path
             id="path2468"
             style="fill:#231f20;fill-opacity:1;fill-rule:nonzero;stroke:none"
             d="M 107.128,152.678 L 110.781,152.678 L 110.781,152.037 L 107.866,152.037 L 107.866,149.379 L 110.631,149.379 L 110.631,148.737 L 107.866,148.737 L 107.866,145.865 L 110.909,145.865 L 110.909,145.225 L 107.128,145.225 L 107.128,152.678 z" />
          <path
             id="path2470"
             style="fill:#231f20;fill-opacity:1;fill-rule:nonzero;stroke:none"
             d="M 113.108,152.678 L 114.25,152.678 L 116.974,146.122 L 119.708,152.678 L 120.764,152.678 L 120.764,145.225 L 120.028,145.225 L 120.028,151.941 L 120.006,151.941 L 117.294,145.225 L 116.664,145.225 L 113.867,151.941 L 113.845,151.941 L 113.845,145.225 L 113.108,145.225 L 113.108,152.678 z" />
          <path
             id="path2472"
             style="fill:#231f20;fill-opacity:1;fill-rule:nonzero;stroke:none"
             d="M 123.936,149.421 L 124.758,149.421 C 125.538,149.421 126.574,149.624 126.574,150.81 C 126.574,151.888 125.581,152.037 124.951,152.037 L 123.936,152.037 L 123.936,149.421 z M 123.915,145.865 L 124.683,145.865 C 125.676,145.865 126.797,146.132 126.797,147.317 C 126.797,148.642 125.655,148.78 124.566,148.78 L 123.915,148.78 L 123.915,145.865 z M 123.178,152.678 L 124.951,152.678 C 126.167,152.678 127.31,152.272 127.31,150.842 C 127.31,149.891 126.873,149.325 125.955,149.144 L 125.955,149.122 C 126.894,148.951 127.535,148.332 127.535,147.35 C 127.535,145.727 126.21,145.225 124.663,145.225 L 123.178,145.225 L 123.178,152.678 z" />
          <path
             id="path2474"
             style="fill:#231f20;fill-opacity:1;fill-rule:nonzero;stroke:none"
             d="M 129.82,152.678 L 133.472,152.678 L 133.472,152.037 L 130.557,152.037 L 130.557,149.379 L 133.323,149.379 L 133.323,148.737 L 130.557,148.737 L 130.557,145.865 L 133.6,145.865 L 133.6,145.225 L 129.82,145.225 L 129.82,152.678 z" />
          <path
             id="path2476"
             style="fill:#231f20;fill-opacity:1;fill-rule:nonzero;stroke:none"
             d="M 136.558,149.379 L 137.337,149.379 C 138.203,149.379 139.195,149.71 139.195,150.745 C 139.195,151.963 138.331,152.037 137.316,152.037 L 136.558,152.037 L 136.558,149.379 z M 135.821,152.678 L 137.743,152.678 C 139.067,152.678 139.932,152.112 139.932,150.745 C 139.932,149.784 139.195,149.144 138.277,149.026 L 138.277,149.005 C 138.875,148.93 139.003,148.609 139.238,148.107 L 140.508,145.225 L 139.697,145.225 L 138.619,147.745 C 138.192,148.706 137.872,148.737 137.167,148.737 L 136.558,148.737 L 136.558,145.225 L 135.821,145.225 L 135.821,152.678 z" />
          <path
             id="path2478"
             style="fill:#231f20;fill-opacity:1;fill-rule:nonzero;stroke:none"
             d="M 147.48,148.62 L 145.752,148.62 L 145.752,149.261 L 148.217,149.261 L 148.217,145.556 C 147.459,145.225 146.723,145.097 145.9,145.097 C 143.551,145.097 142.142,146.645 142.142,148.951 C 142.142,151.215 143.594,152.807 145.9,152.807 C 146.467,152.807 147.395,152.71 147.896,152.454 L 147.813,151.771 C 147.234,152.091 146.553,152.165 145.9,152.165 C 143.969,152.165 142.878,150.799 142.878,148.951 C 142.878,147.072 143.936,145.737 145.9,145.737 C 146.359,145.737 147.129,145.791 147.48,146.004 L 147.48,148.62 z" />
          <path
             id="path2480"
             style="fill:#231f20;fill-opacity:1;fill-rule:nonzero;stroke:none"
             d="M 156.088,148.332 C 156.088,149.282 155.703,150.222 154.699,150.222 C 153.707,150.222 153.098,149.229 153.098,148.332 L 156.088,148.332 z M 156.418,145.396 C 155.949,145.203 155.34,145.097 154.838,145.097 C 153.033,145.097 152.361,146.313 152.361,147.947 C 152.361,149.613 153.279,150.799 154.656,150.799 C 156.195,150.799 156.824,149.56 156.824,148.097 L 156.824,147.755 L 153.098,147.755 C 153.098,146.603 153.717,145.673 154.893,145.673 C 155.383,145.673 156.098,145.876 156.418,146.079 L 156.418,145.396 z" />
          <path
             id="path2482"
             style="fill:#231f20;fill-opacity:1;fill-rule:nonzero;stroke:none"
             d="M 158.736,146.122 L 159.599,146.122 L 159.599,145.225 L 158.736,145.225 L 158.736,146.122 z" />
          <path
             id="path2484"
             style="fill:#231f20;fill-opacity:1;fill-rule:nonzero;stroke:none"
             d="M 164.289,145.225 L 163.498,145.225 L 160.723,152.678 L 161.502,152.678 L 163.904,145.962 L 166.393,152.678 L 167.117,152.678 L 164.289,145.225 z" />
          <path
             id="path2486"
             style="fill:#231f20;fill-opacity:1;fill-rule:nonzero;stroke:none"
             d="M 167.279,146.122 L 168.142,146.122 L 168.142,145.225 L 167.279,145.225 L 167.279,146.122 z" />
          <path
             id="path2488"
             style="fill:#231f20;fill-opacity:1;fill-rule:nonzero;stroke:none"
             d="M 33.849,165.242 L 46.219,165.242 L 46.219,163.627 L 31.904,163.627 L 31.904,188.661 L 33.849,188.661 L 33.849,165.242 z" />
          <path
             id="path2490"
             style="fill:#231f20;fill-opacity:1;fill-rule:nonzero;stroke:none"
             d="M 57.965,172.033 C 53.671,172.216 50.11,170.344 50.11,167.481 C 50.11,165.939 51.505,164.765 53.377,164.765 C 54.956,164.765 56.24,165.352 57.965,166.894 L 57.965,172.033 z M 62.48,165.022 L 62.187,164.802 C 60.535,163.554 59.837,163.297 59.14,163.297 C 58.333,163.297 58.112,163.7 57.965,165.352 C 56.13,163.92 54.552,163.297 52.79,163.297 C 50.294,163.297 48.348,165.168 48.348,167.481 C 48.348,171.776 53.157,173.281 57.965,173.501 L 57.965,175.593 C 57.965,177.796 56.754,178.971 54.295,178.971 C 52.533,178.971 51.211,178.347 49.266,176.878 L 49.266,178.677 C 51.285,179.925 52.79,180.439 54.588,180.439 C 56.644,180.439 59.728,179.594 59.728,176.144 L 59.728,165.866 C 59.728,165.206 59.837,165.022 60.131,165.022 C 60.535,165.022 61.6,165.792 62.48,166.49 L 62.48,165.022 z" />
          <path
             id="path2492"
             style="fill:#231f20;fill-opacity:1;fill-rule:nonzero;stroke:none"
             d="M 67.545,177.245 L 67.619,177.245 C 69.161,179.558 70.666,180.439 73.051,180.439 C 76.576,180.439 79.182,178.126 79.182,173.685 L 79.182,163.627 L 77.419,163.627 L 77.419,173.024 C 77.419,176.731 75.841,178.713 72.942,178.713 C 70.556,178.713 69.014,177.576 67.545,175.189 L 67.545,163.627 L 65.784,163.627 L 65.784,180.108 L 67.545,180.108 L 67.545,177.245 z" />
          <path
             id="path2494"
             style="fill:#231f20;fill-opacity:1;fill-rule:nonzero;stroke:none"
             d="M 94.819,177.172 C 93.02,178.31 91.735,178.713 90.01,178.713 C 86.193,178.713 83.476,175.924 83.476,171.996 C 83.476,167.995 86.413,165.022 90.377,165.022 C 92.029,165.022 93.13,165.389 94.819,166.527 L 94.819,177.172 z M 96.581,163.627 L 94.819,163.627 L 94.819,164.912 C 93.057,163.7 91.809,163.297 89.937,163.297 C 85.238,163.297 81.604,167.041 81.604,171.886 C 81.604,176.805 85.128,180.439 89.937,180.439 C 91.625,180.439 92.799,180.108 94.819,179.117 L 94.819,188.661 L 96.581,188.661 L 96.581,163.627 z" />
          <path
             id="path2496"
             style="fill:#231f20;fill-opacity:1;fill-rule:nonzero;stroke:none"
             d="M 112.401,173.905 C 111.777,177.135 110.015,178.713 107.189,178.713 C 104.472,178.713 102.343,176.915 101.719,173.905 L 112.401,173.905 z M 101.499,172.473 C 100.985,168.252 104.326,165.022 108.07,165.022 C 110.272,165.022 112.071,165.756 114.2,167.481 L 114.2,165.499 C 112.254,163.994 110.235,163.297 107.849,163.297 C 103.078,163.297 99.627,166.967 99.627,172.069 C 99.627,176.915 102.821,180.439 107.189,180.439 C 110.712,180.439 114.494,177.979 114.494,172.473 L 101.499,172.473 z" />
          <path
             id="path2498"
             style="fill:#231f20;fill-opacity:1;fill-rule:nonzero;stroke:none"
             d="M 127.157,177.135 C 125.321,178.347 124.11,178.824 122.641,178.824 C 120.66,178.824 119.118,177.612 119.118,176.034 C 119.118,172.069 127.67,173.575 127.67,167.848 C 127.67,165.279 125.321,163.297 122.274,163.297 C 120.585,163.297 119.007,163.773 117.319,164.802 L 117.319,166.527 C 119.485,165.426 120.917,165.022 122.495,165.022 C 124.513,165.022 125.982,166.196 125.982,167.885 C 125.982,171.813 117.429,170.638 117.429,175.924 C 117.429,178.457 119.778,180.439 122.751,180.439 C 124.183,180.439 125.504,179.998 127.157,179.044 L 127.157,177.135 z" />
          <path
             id="path2500"
             style="fill:#231f20;fill-opacity:1;fill-rule:nonzero;stroke:none"
             d="M 132.845,177.208 L 132.919,177.208 C 134.387,179.521 135.929,180.439 138.168,180.439 C 140.738,180.439 142.426,179.154 143.49,176.475 C 145.143,179.228 146.83,180.439 149.217,180.439 C 152.668,180.439 154.943,177.796 154.943,173.758 L 154.943,163.627 L 153.182,163.627 L 153.182,172.987 C 153.182,176.291 151.787,178.713 148.887,178.713 C 146.867,178.713 145.547,177.612 143.895,174.859 L 143.895,163.627 L 142.132,163.627 L 142.132,173.024 C 142.132,177.099 140.114,178.713 137.801,178.713 C 135.783,178.713 134.387,177.723 132.845,175.189 L 132.845,163.627 L 131.083,163.627 L 131.083,180.108 L 132.845,180.108 L 132.845,177.208 z" />
          <path
             id="path2502"
             style="fill:#231f20;fill-opacity:1;fill-rule:nonzero;stroke:none"
             d="M 169.699,166.343 L 169.627,166.343 C 168.121,164.214 166.764,163.297 164.193,163.297 C 161.367,163.297 158.063,164.985 158.063,169.904 L 158.063,180.108 L 159.826,180.108 L 159.826,169.94 C 159.826,166.6 161.918,165.022 164.34,165.022 C 166.947,165.022 168.268,166.307 169.699,168.546 L 169.699,180.108 L 171.461,180.108 L 171.461,163.627 L 169.699,163.627 L 169.699,166.343 z" />
          <path
             id="path2504"
             style="fill:#231f20;fill-opacity:1;fill-rule:nonzero;stroke:none"
             d="M 184.455,177.135 C 182.619,178.347 181.408,178.824 179.939,178.824 C 177.959,178.824 176.416,177.612 176.416,176.034 C 176.416,172.069 184.969,173.575 184.969,167.848 C 184.969,165.279 182.619,163.297 179.572,163.297 C 177.885,163.297 176.307,163.773 174.617,164.802 L 174.617,166.527 C 176.783,165.426 178.215,165.022 179.793,165.022 C 181.813,165.022 183.281,166.196 183.281,167.885 C 183.281,171.813 174.729,170.638 174.729,175.924 C 174.729,178.457 177.076,180.439 180.051,180.439 C 181.482,180.439 182.803,179.998 184.455,179.044 L 184.455,177.135 z" />
          <path
             id="path2506"
             style="fill:#231f20;fill-opacity:1;fill-rule:nonzero;stroke:none"
             d="M 203.762,172.29 L 214.188,163.627 L 211.764,163.627 L 201.377,172.29 L 210.48,180.108 L 212.793,180.108 L 203.762,172.29 z M 201.119,163.627 L 199.357,163.627 L 199.357,188.661 L 201.119,188.661 L 201.119,163.627 z" />
          <path
             id="path2508"
             style="fill:#231f20;fill-opacity:1;fill-rule:nonzero;stroke:none"
             d="M 227.07,176.841 C 225.492,178.273 224.686,178.713 223.768,178.713 C 222.152,178.713 220.279,177.025 218.48,173.979 L 218.48,163.627 L 216.719,163.627 L 216.719,180.108 L 218.48,180.108 L 218.48,175.777 L 218.555,175.777 C 220.5,178.86 222.482,180.439 224.318,180.439 C 225.455,180.439 226.482,179.925 228.098,178.493 L 227.07,176.841 z" />
          <path
             id="path2510"
             style="fill:#231f20;fill-opacity:1;fill-rule:nonzero;stroke:none"
             d="M 239.109,172.033 C 234.814,172.216 231.254,170.344 231.254,167.481 C 231.254,165.939 232.65,164.765 234.521,164.765 C 236.1,164.765 237.385,165.352 239.109,166.894 L 239.109,172.033 z M 243.625,165.022 L 243.332,164.802 C 241.68,163.554 240.982,163.297 240.285,163.297 C 239.477,163.297 239.258,163.7 239.109,165.352 C 237.275,163.92 235.697,163.297 233.934,163.297 C 231.438,163.297 229.492,165.168 229.492,167.481 C 229.492,171.776 234.301,173.281 239.109,173.501 L 239.109,175.593 C 239.109,177.796 237.898,178.971 235.439,178.971 C 233.678,178.971 232.355,178.347 230.41,176.878 L 230.41,178.677 C 232.43,179.925 233.934,180.439 235.732,180.439 C 237.789,180.439 240.871,179.594 240.871,176.144 L 240.871,165.866 C 240.871,165.206 240.982,165.022 241.275,165.022 C 241.68,165.022 242.744,165.792 243.625,166.49 L 243.625,165.022 z" />
          <path
             id="path2512"
             style="fill:#231f20;fill-opacity:1;fill-rule:nonzero;stroke:none"
             d="M 249.424,180.108 L 254.049,180.108 L 254.049,178.677 L 249.424,178.677 L 249.424,168.876 C 249.424,166.05 249.461,165.022 251.883,165.022 C 252.873,165.022 253.424,165.168 254.893,165.83 L 254.893,164.141 C 254.563,163.958 254.012,163.773 253.389,163.59 C 252.764,163.443 252.066,163.297 251.479,163.297 C 249.645,163.297 247.662,164.324 247.662,166.82 L 247.662,178.677 L 243.221,178.677 L 243.221,180.108 L 247.662,180.108 L 247.662,184.036 L 248.873,185.578 L 249.424,185.578 L 249.424,180.108 z" />
          <path
             id="path2514"
             style="fill:#231f20;fill-opacity:1;fill-rule:nonzero;stroke:none"
             d="M 192.586,164.74 C 193.567,170.729 192.543,177.377 191.266,180.632 C 189.578,184.938 188.398,182.115 188.408,182.125 C 189.991,181.604 191.099,168.944 191.039,163.828" />
          <path
             id="path2516"
             style="fill:#231f20;fill-opacity:1;fill-rule:nonzero;stroke:none"
             d="M 196.685,159.146 C 197.769,156.083 194.243,152.037 188.808,150.115 C 183.37,148.19 178.082,149.118 176.999,152.18 C 175.918,155.246 179.447,159.288 184.883,161.209 C 190.316,163.134 195.604,162.208 196.685,159.146" />
          <path
             id="path2518"
             style="fill:none;stroke:#ffffff;stroke-width:1;stroke-linecap:butt;stroke-linejoin:miter;stroke-miterlimit:4;stroke-dasharray:none;stroke-opacity:1"
             d="M 196.685,159.146 C 197.769,156.083 194.243,152.037 188.808,150.115 C 183.37,148.19 178.082,149.118 176.999,152.18 C 175.918,155.246 179.447,159.288 184.883,161.209 C 190.316,163.134 195.604,162.208 196.685,159.146 z" />
          <path
             id="path2520"
             style="fill:#321510;fill-opacity:1;fill-rule:nonzero;stroke:none"
             d="M 182.914,193.804 C 186.778,188.099 187.103,189.816 187.1,189.814 C 192.527,194.595 192.524,187.267 199.554,192.522 C 206.587,197.792 204.27,205.71 204.265,205.705 C 194.161,196.194 182.929,193.818 182.914,193.804" />
          <path
             id="path2522"
             style="fill:#231f20;fill-opacity:1;fill-rule:nonzero;stroke:none"
             d="M 220.435,146.103 C 219.548,145.851 217.962,144.832 217.962,144.832 C 213.786,144.832 214.378,143.556 214.378,143.556 C 214.931,143.546 219.415,143.546 219.415,143.546 C 221.996,145.246 226.966,145.339 226.966,145.339 C 229.389,146.357 230.683,145.851 230.683,145.851 C 232.29,147.692 234.824,147.122 234.824,147.122 C 234.119,146.357 233.824,144.832 233.824,144.832 C 232.386,144.576 231.175,144.068 231.175,144.068 C 230.521,143.556 231.353,143.556 231.353,143.556 L 235.529,143.556 C 236.265,145.449 238.67,146.867 238.67,146.867 C 238.677,145.551 240.556,145.087 240.556,145.087 C 242.14,145.007 242.128,144.576 242.128,144.576 C 239.084,144.088 240.539,143.556 240.539,143.556 L 244.435,143.556 C 244.416,143.546 244.729,145.087 244.729,145.087 C 241.586,146.103 242.192,146.357 242.192,146.357 C 242.68,148.903 241.814,150.176 241.814,150.176 C 246.382,152.21 244.484,153.534 243.737,153.772 C 241.316,154.542 238.37,153.806 235.625,152.72 C 233.858,152.023 231.814,151.428 230.925,151.447 C 229.027,151.491 229.697,153.738 229.697,153.738 C 230.367,155.774 228.584,153.738 228.584,153.738 C 226.751,151.447 229.231,150.748 230.778,150.686 C 231.922,150.637 233.316,150.891 234.824,151.447 C 237.621,152.482 238.571,153.182 240.782,153.16 C 244.279,153.127 241.405,150.94 241.405,150.94 C 239.833,151.447 239.95,151.344 238.997,151.447 C 235.728,151.801 234.06,149.929 230.813,149.413 C 226.616,148.743 226.785,150.176 226.785,150.176 C 227.028,151.447 226.161,152.72 226.161,152.72 C 226.913,153.738 226.962,153.994 226.962,153.994 C 226.406,153.994 225.521,153.738 225.521,153.738 C 221.774,154.501 219.889,153.127 219.889,153.127 C 219.283,152.872 219.022,152.217 219.415,151.87 C 219.718,151.602 220.447,151.957 220.447,151.957 C 221.233,151.703 220.629,151.447 220.629,151.447 C 220.81,150.94 218.682,151.447 218.682,151.447 C 218.682,151.447 218.174,151.703 218.221,151.957 C 218.221,151.957 217.788,152.667 217.921,151.904 L 218.354,151.194 C 219.039,150.85 220.252,150.94 220.252,150.94 C 220.637,150.342 219.007,150.577 219.007,150.577 C 218.728,150.577 218.992,150.176 218.992,150.176 C 219.173,149.667 220.335,149.922 220.335,149.922 C 220.693,148.903 219.857,148.903 219.857,148.903 C 220.138,148.903 217.733,149.413 217.733,149.413 C 217.88,150.176 217.37,150.429 217.37,150.429 L 215.095,150.176 C 213.509,149.159 215.733,149.159 215.733,149.159 C 216.24,148.903 216.192,148.649 216.192,148.649 C 216.325,147.885 220.63,147.122 220.63,147.122 C 221.466,147.122 220.435,146.103 220.435,146.103" />
        </g>
      </g>
    </g>
  </g>
</svg>
